<svg xmlns="http://www.w3.org/2000/svg" width="33.317" height="21.875" viewBox="0 0 33.317 21.875">
  <defs>
    <style>
      .cls-1 {
        fill: #111;
      }
    </style>
  </defs>
  <g id="Group_4" data-name="Group 4" transform="translate(-54.042 -18.562)">
    <path id="Path_1413" data-name="Path 1413" class="cls-1" d="M18.317-10.5c0,5.338-2.421,9.713-7.233,10.354A18.343,18.343,0,0,1,8.4,0H2.042V-21H8.4a18.343,18.343,0,0,1,2.683.146C15.9-20.212,18.317-15.838,18.317-10.5Zm-2.275,0c0-4.113-1.342-7.525-5.133-8.283A15.686,15.686,0,0,0,8.4-18.929H4.258V-2.071H8.4a15.686,15.686,0,0,0,2.508-.146C14.7-2.975,16.042-6.388,16.042-10.5Z" transform="translate(52 40)"/>
    <path id="Path_1414" data-name="Path 1414" class="cls-1" d="M20.329-10.7H12.746v1.837h5.133A8.345,8.345,0,0,1,16.1-4.083,6.467,6.467,0,0,1,10.821-1.75a6.816,6.816,0,0,1-5.6-2.6A10.141,10.141,0,0,1,3.529-10.5a10.588,10.588,0,0,1,1.692-6.154,6.944,6.944,0,0,1,5.6-2.6,6.73,6.73,0,0,1,5.25,2.275,6.449,6.449,0,0,1,1.108,1.867l2.246-.554a6.761,6.761,0,0,0-1.779-2.917,8.8,8.8,0,0,0-6.913-2.858,9.035,9.035,0,0,0-7.321,3.354A12.344,12.344,0,0,0,1.167-10.5,12.428,12.428,0,0,0,3.383-3.033,8.743,8.743,0,0,0,10.733.438,8.938,8.938,0,0,0,18.054-2.8a11.883,11.883,0,0,0,2.3-7.233Z" transform="translate(67 40)"/>
  </g>
</svg>
