<svg xmlns="http://www.w3.org/2000/svg" width="34.813" height="22.875" viewBox="0 0 34.813 22.875">
  <path id="logo" d="M-1397.471,27a11.488,11.488,0,0,1-.934-1.461,8.127,8.127,0,0,1-6.309,4.349,22.739,22.739,0,0,1-2.566.116h-6.68V9h6.68a22.514,22.514,0,0,1,2.566.117,8.116,8.116,0,0,1,6.267,4.273,9.464,9.464,0,0,1,.976-1.444A9.208,9.208,0,0,1-1390,8.563a9.121,9.121,0,0,1,6.387,2.129,8.413,8.413,0,0,1,2.888,4.725l-3.821.583a5.247,5.247,0,0,0-1.371-2.334,5.328,5.328,0,0,0-3.85-1.488,5.719,5.719,0,0,0-4.667,2.159,8.622,8.622,0,0,0-1.429,5.162,8.539,8.539,0,0,0,1.429,5.162,5.614,5.614,0,0,0,4.667,2.129,5.189,5.189,0,0,0,3.85-1.488,6.1,6.1,0,0,0,1.662-3.559h-4.375V18.975h8.458l.03,1.109a11.125,11.125,0,0,1-2.479,7.233,9.267,9.267,0,0,1-7.379,3.12A9.142,9.142,0,0,1-1397.471,27Zm-12.9-.32h3.092a13.09,13.09,0,0,0,2.333-.146c3-.671,4.259-3.646,4.259-7.029s-1.255-6.359-4.259-7.03a13.09,13.09,0,0,0-2.333-.146h-3.092Z" transform="translate(1414.458 -8.063)" fill="#111"/>
</svg>
