<svg xmlns="http://www.w3.org/2000/svg" width="19.688" height="21.875" viewBox="0 0 19.688 21.875">
  <path id="Path_1413" data-name="Path 1413" d="M20.825-11.025H12.367v2.771h4.375A6.1,6.1,0,0,1,15.079-4.7a5.187,5.187,0,0,1-3.85,1.487A5.612,5.612,0,0,1,6.563-5.338,8.538,8.538,0,0,1,5.133-10.5a8.625,8.625,0,0,1,1.429-5.163,5.718,5.718,0,0,1,4.667-2.158,5.326,5.326,0,0,1,3.85,1.487A5.25,5.25,0,0,1,16.45-14l3.821-.583a8.412,8.412,0,0,0-2.888-4.725A9.123,9.123,0,0,0,11-21.438a9.21,9.21,0,0,0-7.467,3.383A11.572,11.572,0,0,0,1.167-10.5,12.2,12.2,0,0,0,3.529-3,9.145,9.145,0,0,0,11,.438a9.268,9.268,0,0,0,7.379-3.121,11.125,11.125,0,0,0,2.479-7.233Z" transform="translate(-1.167 21.438)" fill="#111"/>
</svg>
