<svg xmlns="http://www.w3.org/2000/svg" width="16.975" height="21" viewBox="0 0 16.975 21">
  <path id="Path_1414" data-name="Path 1414" d="M19.017-10.5c0,5.279-2.712,9.771-7.729,10.383A22.7,22.7,0,0,1,8.721,0H2.042V-21H8.721a22.7,22.7,0,0,1,2.567.117C16.3-20.271,19.017-15.779,19.017-10.5Zm-3.7,0c0-3.383-1.254-6.358-4.258-7.029a13.044,13.044,0,0,0-2.333-.146H5.629v14.35H8.721a13.044,13.044,0,0,0,2.333-.146C14.058-4.142,15.313-7.117,15.313-10.5Z" transform="translate(-2.042 21)" fill="#111"/>
</svg>
